<svg width="22" height="22" viewBox="0 0 22 22" fill="none" xmlns="http://www.w3.org/2000/svg">
<path d="M11 21C16.5228 21 21 16.5228 21 11C21 5.47715 16.5228 1 11 1C5.47715 1 1 5.47715 1 11C1 16.5228 5.47715 21 11 21Z" stroke="black" stroke-width="2" stroke-linecap="round" stroke-linejoin="round"/>
<path d="M8.09009 8C8.32519 7.33167 8.78924 6.76811 9.40004 6.40913C10.0108 6.05016 10.729 5.91894 11.4273 6.03871C12.1255 6.15849 12.7589 6.52153 13.2152 7.06353C13.6714 7.60553 13.9211 8.29152 13.9201 9C13.9201 11 10.9201 12 10.9201 12" stroke="black" stroke-width="2" stroke-linecap="round" stroke-linejoin="round"/>
<path d="M11 16H11.01" stroke="black" stroke-width="2" stroke-linecap="round" stroke-linejoin="round"/>
</svg>
